P2
# Created by GIMP version 2.10.18 PNM plug-in
94 94
255
127
127
127
127
127
127
127
127
127
127
127
127
127
127
127
98
98
98
98
98
98
98
98
98
98
98
98
98
98
98
98
70
70
70
70
70
70
70
70
70
70
70
70
70
70
70
70
43
43
43
43
43
43
43
43
43
43
43
43
43
43
43
43
20
20
20
20
20
20
20
20
20
20
20
20
20
20
20
20
1
1
1
1
1
1
1
1
1
1
1
1
1
1
1
127
127
127
127
127
127
127
127
127
127
127
127
127
127
127
98
98
98
98
98
98
98
98
98
98
98
98
98
98
98
98
70
70
70
70
70
70
70
70
70
70
70
70
70
70
70
70
43
43
43
43
43
43
43
43
43
43
43
43
43
43
43
43
20
20
20
20
20
20
20
20
20
20
20
20
20
20
20
20
1
1
1
1
1
1
1
1
1
1
1
1
1
1
1
127
127
127
127
127
127
127
127
127
127
127
127
127
127
127
98
98
98
98
98
98
98
98
98
98
98
98
98
98
98
98
70
70
70
70
70
70
70
70
70
70
70
70
70
70
70
70
43
43
43
43
43
43
43
43
43
43
43
43
43
43
43
43
20
20
20
20
20
20
20
20
20
20
20
20
20
20
20
20
1
1
1
1
1
1
1
1
1
1
1
1
1
1
1
127
127
127
127
127
127
127
127
127
127
127
127
127
127
127
98
98
98
98
98
98
98
98
98
98
98
98
98
98
98
98
70
70
70
70
70
70
70
70
70
70
70
70
70
70
70
70
43
43
43
43
43
43
43
43
43
43
43
43
43
43
43
43
20
20
20
20
20
20
20
20
20
20
20
20
20
20
20
20
1
1
1
1
1
1
1
1
1
1
1
1
1
1
1
127
127
127
127
127
127
127
127
127
127
127
127
127
127
127
98
98
98
98
98
98
98
98
98
98
98
98
98
98
98
98
70
70
70
70
70
70
70
70
70
70
70
70
70
70
70
70
43
43
43
43
43
43
43
43
43
43
43
43
43
43
43
43
20
20
20
20
20
20
20
20
20
20
20
20
20
20
20
20
1
1
1
1
1
1
1
1
1
1
1
1
1
1
1
127
127
127
127
127
127
127
127
127
127
127
127
127
127
127
98
98
98
98
98
98
98
98
98
98
98
98
98
98
98
98
70
70
70
70
70
70
70
70
70
70
70
70
70
70
70
70
43
43
43
43
43
43
43
43
43
43
43
43
43
43
43
43
20
20
20
20
20
20
20
20
20
20
20
20
20
20
20
20
1
1
1
1
1
1
1
1
1
1
1
1
1
1
1
127
127
127
127
127
127
127
127
127
127
127
127
127
127
127
98
98
98
98
98
98
98
98
98
98
98
98
98
98
98
98
70
70
70
70
70
70
70
70
70
70
70
70
70
70
70
70
43
43
43
43
43
43
43
43
43
43
43
43
43
43
43
43
20
20
20
20
20
20
20
20
20
20
20
20
20
20
20
20
1
1
1
1
1
1
1
1
1
1
1
1
1
1
1
127
127
127
127
127
127
127
127
127
127
127
127
127
127
127
98
98
98
98
98
98
98
98
98
98
98
98
98
98
98
98
70
70
70
70
70
70
70
70
70
70
70
70
70
70
70
70
43
43
43
43
43
43
43
43
43
43
43
43
43
43
43
43
20
20
20
20
20
20
20
20
20
20
20
20
20
20
20
20
1
1
1
1
1
1
1
1
1
1
1
1
1
1
1
127
127
127
127
127
127
127
127
127
127
127
127
127
127
127
98
98
98
98
98
98
98
98
98
98
98
98
98
98
98
98
70
70
70
70
70
70
70
70
70
70
70
70
70
70
70
70
43
43
43
43
43
43
43
43
43
43
43
43
43
43
43
43
20
20
20
20
20
20
20
20
20
20
20
20
20
20
20
20
1
1
1
1
1
1
1
1
1
1
1
1
1
1
1
127
127
127
127
127
127
127
127
127
127
127
127
127
127
127
98
98
98
98
98
98
98
98
98
98
98
98
98
98
98
98
70
70
70
70
70
70
70
70
70
70
70
70
70
70
70
70
43
43
43
43
43
43
43
43
43
43
43
43
43
43
43
43
20
20
20
20
20
20
20
20
20
20
20
20
20
20
20
20
1
1
1
1
1
1
1
1
1
1
1
1
1
1
1
127
127
127
127
127
127
127
127
127
127
127
127
127
127
127
98
98
98
98
98
98
98
98
98
98
98
98
98
98
98
98
70
70
70
70
70
70
70
70
70
70
70
70
70
70
70
70
43
43
43
43
43
43
43
43
43
43
43
43
43
43
43
43
20
20
20
20
20
20
20
20
20
20
20
20
20
20
20
20
1
1
1
1
1
1
1
1
1
1
1
1
1
1
1
127
127
127
127
127
127
127
127
127
127
127
127
127
127
127
98
98
98
98
98
98
98
98
98
98
98
98
98
98
98
98
70
70
70
70
70
70
70
70
70
70
70
70
70
70
70
70
43
43
43
43
43
43
43
43
43
43
43
43
43
43
43
43
20
20
20
20
20
20
20
20
20
20
20
20
20
20
20
20
1
1
1
1
1
1
1
1
1
1
1
1
1
1
1
127
127
127
127
127
127
127
127
127
127
127
127
127
127
127
98
98
98
98
98
98
98
98
98
98
98
98
98
98
98
98
70
70
70
70
70
70
70
70
70
70
70
70
70
70
70
70
43
43
43
43
43
43
43
43
43
43
43
43
43
43
43
43
20
20
20
20
20
20
20
20
20
20
20
20
20
20
20
20
1
1
1
1
1
1
1
1
1
1
1
1
1
1
1
127
127
127
127
127
127
127
127
127
127
127
127
127
127
127
98
98
98
98
98
98
98
98
98
98
98
98
98
98
98
98
70
70
70
70
70
70
70
70
70
70
70
70
70
70
70
70
43
43
43
43
43
43
43
43
43
43
43
43
43
43
43
43
20
20
20
20
20
20
20
20
20
20
20
20
20
20
20
20
1
1
1
1
1
1
1
1
1
1
1
1
1
1
1
127
127
127
127
127
127
127
127
127
127
127
127
127
127
127
98
98
98
98
98
98
98
98
98
98
98
98
98
98
98
98
70
70
70
70
70
70
70
70
70
70
70
70
70
70
70
70
43
43
43
43
43
43
43
43
43
43
43
43
43
43
43
43
20
20
20
20
20
20
20
20
20
20
20
20
20
20
20
20
1
1
1
1
1
1
1
1
1
1
1
1
1
1
1
157
157
157
157
157
157
157
157
157
157
157
157
157
157
157
127
127
127
127
127
127
127
127
127
127
127
127
127
127
127
127
98
98
98
98
98
98
98
98
98
98
98
98
98
98
98
98
70
70
70
70
70
70
70
70
70
70
70
70
70
70
70
70
43
43
43
43
43
43
43
43
43
43
43
43
43
43
43
43
20
20
20
20
20
20
20
20
20
20
20
20
20
20
20
157
157
157
157
157
157
157
157
157
157
157
157
157
157
157
127
127
127
127
127
127
127
127
127
127
127
127
127
127
127
127
98
98
98
98
98
98
98
98
98
98
98
98
98
98
98
98
70
70
70
70
70
70
70
70
70
70
70
70
70
70
70
70
43
43
43
43
43
43
43
43
43
43
43
43
43
43
43
43
20
20
20
20
20
20
20
20
20
20
20
20
20
20
20
157
157
157
157
157
157
157
157
157
157
157
157
157
157
157
127
127
127
127
127
127
127
127
127
127
127
127
127
127
127
127
98
98
98
98
98
98
98
98
98
98
98
98
98
98
98
98
70
70
70
70
70
70
70
70
70
70
70
70
70
70
70
70
43
43
43
43
43
43
43
43
43
43
43
43
43
43
43
43
20
20
20
20
20
20
20
20
20
20
20
20
20
20
20
157
157
157
157
157
157
157
157
157
157
157
157
157
157
157
127
127
127
127
127
127
127
127
127
127
127
127
127
127
127
127
98
98
98
98
98
98
98
98
98
98
98
98
98
98
98
98
70
70
70
70
70
70
70
70
70
70
70
70
70
70
70
70
43
43
43
43
43
43
43
43
43
43
43
43
43
43
43
43
20
20
20
20
20
20
20
20
20
20
20
20
20
20
20
157
157
157
157
157
157
157
157
157
157
157
157
157
157
157
127
127
127
127
127
127
127
127
127
127
127
127
127
127
127
127
98
98
98
98
98
98
98
98
98
98
98
98
98
98
98
98
70
70
70
70
70
70
70
70
70
70
70
70
70
70
70
70
43
43
43
43
43
43
43
43
43
43
43
43
43
43
43
43
20
20
20
20
20
20
20
20
20
20
20
20
20
20
20
157
157
157
157
157
157
157
157
157
157
157
157
157
157
157
127
127
127
127
127
127
127
127
127
127
127
127
127
127
127
127
98
98
98
98
98
98
98
98
98
98
98
98
98
98
98
98
70
70
70
70
70
70
70
70
70
70
70
70
70
70
70
70
43
43
43
43
43
43
43
43
43
43
43
43
43
43
43
43
20
20
20
20
20
20
20
20
20
20
20
20
20
20
20
157
157
157
157
157
157
157
157
157
157
157
157
157
157
157
127
127
127
127
127
127
127
127
127
127
127
127
127
127
127
127
98
98
98
98
98
98
98
98
98
98
98
98
98
98
98
98
70
70
70
70
70
70
70
70
70
70
70
70
70
70
70
70
43
43
43
43
43
43
43
43
43
43
43
43
43
43
43
43
20
20
20
20
20
20
20
20
20
20
20
20
20
20
20
157
157
157
157
157
157
157
157
157
157
157
157
157
157
157
127
127
127
127
127
127
127
127
127
127
127
127
127
127
127
127
98
98
98
98
98
98
98
98
98
98
98
98
98
98
98
98
70
70
70
70
70
70
70
70
70
70
70
70
70
70
70
70
43
43
43
43
43
43
43
43
43
43
43
43
43
43
43
43
20
20
20
20
20
20
20
20
20
20
20
20
20
20
20
157
157
157
157
157
157
157
157
157
157
157
157
157
157
157
127
127
127
127
127
127
127
127
127
127
127
127
127
127
127
127
98
98
98
98
98
98
98
98
98
98
98
98
98
98
98
98
70
70
70
70
70
70
70
70
70
70
70
70
70
70
70
70
43
43
43
43
43
43
43
43
43
43
43
43
43
43
43
43
20
20
20
20
20
20
20
20
20
20
20
20
20
20
20
157
157
157
157
157
157
157
157
157
157
157
157
157
157
157
127
127
127
127
127
127
127
127
127
127
127
127
127
127
127
127
98
98
98
98
98
98
98
98
98
98
98
98
98
98
98
98
70
70
70
70
70
70
70
70
70
70
70
70
70
70
70
70
43
43
43
43
43
43
43
43
43
43
43
43
43
43
43
43
20
20
20
20
20
20
20
20
20
20
20
20
20
20
20
157
157
157
157
157
157
157
157
157
157
157
157
157
157
157
127
127
127
127
127
127
127
127
127
127
127
127
127
127
127
127
98
98
98
98
98
98
98
98
98
98
98
98
98
98
98
98
70
70
70
70
70
70
70
70
70
70
70
70
70
70
70
70
43
43
43
43
43
43
43
43
43
43
43
43
43
43
43
43
20
20
20
20
20
20
20
20
20
20
20
20
20
20
20
157
157
157
157
157
157
157
157
157
157
157
157
157
157
157
127
127
127
127
127
127
127
127
127
127
127
127
127
127
127
127
98
98
98
98
98
98
98
98
98
98
98
98
98
98
98
98
70
70
70
70
70
70
70
70
70
70
70
70
70
70
70
70
43
43
43
43
43
43
43
43
43
43
43
43
43
43
43
43
20
20
20
20
20
20
20
20
20
20
20
20
20
20
20
157
157
157
157
157
157
157
157
157
157
157
157
157
157
157
127
127
127
127
127
127
127
127
127
127
127
127
127
127
127
127
98
98
98
98
98
98
98
98
98
98
98
98
98
98
98
98
70
70
70
70
70
70
70
70
70
70
70
70
70
70
70
70
43
43
43
43
43
43
43
43
43
43
43
43
43
43
43
43
20
20
20
20
20
20
20
20
20
20
20
20
20
20
20
157
157
157
157
157
157
157
157
157
157
157
157
157
157
157
127
127
127
127
127
127
127
127
127
127
127
127
127
127
127
127
98
98
98
98
98
98
98
98
98
98
98
98
98
98
98
98
70
70
70
70
70
70
70
70
70
70
70
70
70
70
70
70
43
43
43
43
43
43
43
43
43
43
43
43
43
43
43
43
20
20
20
20
20
20
20
20
20
20
20
20
20
20
20
157
157
157
157
157
157
157
157
157
157
157
157
157
157
157
127
127
127
127
127
127
127
127
127
127
127
127
127
127
127
127
98
98
98
98
98
98
98
98
98
98
98
98
98
98
98
98
70
70
70
70
70
70
70
70
70
70
70
70
70
70
70
70
43
43
43
43
43
43
43
43
43
43
43
43
43
43
43
43
20
20
20
20
20
20
20
20
20
20
20
20
20
20
20
157
157
157
157
157
157
157
157
157
157
157
157
157
157
157
127
127
127
127
127
127
127
127
127
127
127
127
127
127
127
127
98
98
98
98
98
98
98
98
98
98
98
98
98
98
98
98
70
70
70
70
70
70
70
70
70
70
70
70
70
70
70
70
43
43
43
43
43
43
43
43
43
43
43
43
43
43
43
43
20
20
20
20
20
20
20
20
20
20
20
20
20
20
20
185
185
185
185
185
185
185
185
185
185
185
185
185
185
185
157
157
157
157
157
157
157
157
157
157
157
157
157
157
157
157
127
127
127
127
127
127
127
127
127
127
127
127
127
127
127
127
98
98
98
98
98
98
98
98
98
98
98
98
98
98
98
98
70
70
70
70
70
70
70
70
70
70
70
70
70
70
70
70
43
43
43
43
43
43
43
43
43
43
43
43
43
43
43
185
185
185
185
185
185
185
185
185
185
185
185
185
185
185
157
157
157
157
157
157
157
157
157
157
157
157
157
157
157
157
127
127
127
127
127
127
127
127
127
127
127
127
127
127
127
127
98
98
98
98
98
98
98
98
98
98
98
98
98
98
98
98
70
70
70
70
70
70
70
70
70
70
70
70
70
70
70
70
43
43
43
43
43
43
43
43
43
43
43
43
43
43
43
185
185
185
185
185
185
185
185
185
185
185
185
185
185
185
157
157
157
157
157
157
157
157
157
157
157
157
157
157
157
157
127
127
127
127
127
127
127
127
127
127
127
127
127
127
127
127
98
98
98
98
98
98
98
98
98
98
98
98
98
98
98
98
70
70
70
70
70
70
70
70
70
70
70
70
70
70
70
70
43
43
43
43
43
43
43
43
43
43
43
43
43
43
43
185
185
185
185
185
185
185
185
185
185
185
185
185
185
185
157
157
157
157
157
157
157
157
157
157
157
157
157
157
157
157
127
127
127
127
127
127
127
127
127
127
127
127
127
127
127
127
98
98
98
98
98
98
98
98
98
98
98
98
98
98
98
98
70
70
70
70
70
70
70
70
70
70
70
70
70
70
70
70
43
43
43
43
43
43
43
43
43
43
43
43
43
43
43
185
185
185
185
185
185
185
185
185
185
185
185
185
185
185
157
157
157
157
157
157
157
157
157
157
157
157
157
157
157
157
127
127
127
127
127
127
127
127
127
127
127
127
127
127
127
127
98
98
98
98
98
98
98
98
98
98
98
98
98
98
98
98
70
70
70
70
70
70
70
70
70
70
70
70
70
70
70
70
43
43
43
43
43
43
43
43
43
43
43
43
43
43
43
185
185
185
185
185
185
185
185
185
185
185
185
185
185
185
157
157
157
157
157
157
157
157
157
157
157
157
157
157
157
157
127
127
127
127
127
127
127
127
127
127
127
127
127
127
127
127
98
98
98
98
98
98
98
98
98
98
98
98
98
98
98
98
70
70
70
70
70
70
70
70
70
70
70
70
70
70
70
70
43
43
43
43
43
43
43
43
43
43
43
43
43
43
43
185
185
185
185
185
185
185
185
185
185
185
185
185
185
185
157
157
157
157
157
157
157
157
157
157
157
157
157
157
157
157
127
127
127
127
127
127
127
127
127
127
127
127
127
127
127
127
98
98
98
98
98
98
98
98
98
98
98
98
98
98
98
98
70
70
70
70
70
70
70
70
70
70
70
70
70
70
70
70
43
43
43
43
43
43
43
43
43
43
43
43
43
43
43
185
185
185
185
185
185
185
185
185
185
185
185
185
185
185
157
157
157
157
157
157
157
157
157
157
157
157
157
157
157
157
127
127
127
127
127
127
127
127
127
127
127
127
127
127
127
127
98
98
98
98
98
98
98
98
98
98
98
98
98
98
98
98
70
70
70
70
70
70
70
70
70
70
70
70
70
70
70
70
43
43
43
43
43
43
43
43
43
43
43
43
43
43
43
185
185
185
185
185
185
185
185
185
185
185
185
185
185
185
157
157
157
157
157
157
157
157
157
157
157
157
157
157
157
157
127
127
127
127
127
127
127
127
127
127
127
127
127
127
127
127
98
98
98
98
98
98
98
98
98
98
98
98
98
98
98
98
70
70
70
70
70
70
70
70
70
70
70
70
70
70
70
70
43
43
43
43
43
43
43
43
43
43
43
43
43
43
43
185
185
185
185
185
185
185
185
185
185
185
185
185
185
185
157
157
157
157
157
157
157
157
157
157
157
157
157
157
157
157
127
127
127
127
127
127
127
127
127
127
127
127
127
127
127
127
98
98
98
98
98
98
98
98
98
98
98
98
98
98
98
98
70
70
70
70
70
70
70
70
70
70
70
70
70
70
70
70
43
43
43
43
43
43
43
43
43
43
43
43
43
43
43
185
185
185
185
185
185
185
185
185
185
185
185
185
185
185
157
157
157
157
157
157
157
157
157
157
157
157
157
157
157
157
127
127
127
127
127
127
127
127
127
127
127
127
127
127
127
127
98
98
98
98
98
98
98
98
98
98
98
98
98
98
98
98
70
70
70
70
70
70
70
70
70
70
70
70
70
70
70
70
43
43
43
43
43
43
43
43
43
43
43
43
43
43
43
185
185
185
185
185
185
185
185
185
185
185
185
185
185
185
157
157
157
157
157
157
157
157
157
157
157
157
157
157
157
157
127
127
127
127
127
127
127
127
127
127
127
127
127
127
127
127
98
98
98
98
98
98
98
98
98
98
98
98
98
98
98
98
70
70
70
70
70
70
70
70
70
70
70
70
70
70
70
70
43
43
43
43
43
43
43
43
43
43
43
43
43
43
43
185
185
185
185
185
185
185
185
185
185
185
185
185
185
185
157
157
157
157
157
157
157
157
157
157
157
157
157
157
157
157
127
127
127
127
127
127
127
127
127
127
127
127
127
127
127
127
98
98
98
98
98
98
98
98
98
98
98
98
98
98
98
98
70
70
70
70
70
70
70
70
70
70
70
70
70
70
70
70
43
43
43
43
43
43
43
43
43
43
43
43
43
43
43
185
185
185
185
185
185
185
185
185
185
185
185
185
185
185
157
157
157
157
157
157
157
157
157
157
157
157
157
157
157
157
127
127
127
127
127
127
127
127
127
127
127
127
127
127
127
127
98
98
98
98
98
98
98
98
98
98
98
98
98
98
98
98
70
70
70
70
70
70
70
70
70
70
70
70
70
70
70
70
43
43
43
43
43
43
43
43
43
43
43
43
43
43
43
185
185
185
185
185
185
185
185
185
185
185
185
185
185
185
157
157
157
157
157
157
157
157
157
157
157
157
157
157
157
157
127
127
127
127
127
127
127
127
127
127
127
127
127
127
127
127
98
98
98
98
98
98
98
98
98
98
98
98
98
98
98
98
70
70
70
70
70
70
70
70
70
70
70
70
70
70
70
70
43
43
43
43
43
43
43
43
43
43
43
43
43
43
43
185
185
185
185
185
185
185
185
185
185
185
185
185
185
185
157
157
157
157
157
157
157
157
157
157
157
157
157
157
157
157
127
127
127
127
127
127
127
127
127
127
127
127
127
127
127
127
98
98
98
98
98
98
98
98
98
98
98
98
98
98
98
98
70
70
70
70
70
70
70
70
70
70
70
70
70
70
70
70
43
43
43
43
43
43
43
43
43
43
43
43
43
43
43
212
212
212
212
212
212
212
212
212
212
212
212
212
212
212
185
185
185
185
185
185
185
185
185
185
185
185
185
185
185
185
157
157
157
157
157
157
157
157
157
157
157
157
157
157
157
157
127
127
127
127
127
127
127
127
127
127
127
127
127
127
127
127
98
98
98
98
98
98
98
98
98
98
98
98
98
98
98
98
70
70
70
70
70
70
70
70
70
70
70
70
70
70
70
212
212
212
212
212
212
212
212
212
212
212
212
212
212
212
185
185
185
185
185
185
185
185
185
185
185
185
185
185
185
185
157
157
157
157
157
157
157
157
157
157
157
157
157
157
157
157
127
127
127
127
127
127
127
127
127
127
127
127
127
127
127
127
98
98
98
98
98
98
98
98
98
98
98
98
98
98
98
98
70
70
70
70
70
70
70
70
70
70
70
70
70
70
70
212
212
212
212
212
212
212
212
212
212
212
212
212
212
212
185
185
185
185
185
185
185
185
185
185
185
185
185
185
185
185
157
157
157
157
157
157
157
157
157
157
157
157
157
157
157
157
127
127
127
127
127
127
127
127
127
127
127
127
127
127
127
127
98
98
98
98
98
98
98
98
98
98
98
98
98
98
98
98
70
70
70
70
70
70
70
70
70
70
70
70
70
70
70
212
212
212
212
212
212
212
212
212
212
212
212
212
212
212
185
185
185
185
185
185
185
185
185
185
185
185
185
185
185
185
157
157
157
157
157
157
157
157
157
157
157
157
157
157
157
157
127
127
127
127
127
127
127
127
127
127
127
127
127
127
127
127
98
98
98
98
98
98
98
98
98
98
98
98
98
98
98
98
70
70
70
70
70
70
70
70
70
70
70
70
70
70
70
212
212
212
212
212
212
212
212
212
212
212
212
212
212
212
185
185
185
185
185
185
185
185
185
185
185
185
185
185
185
185
157
157
157
157
157
157
157
157
157
157
157
157
157
157
157
157
127
127
127
127
127
127
127
127
127
127
127
127
127
127
127
127
98
98
98
98
98
98
98
98
98
98
98
98
98
98
98
98
70
70
70
70
70
70
70
70
70
70
70
70
70
70
70
212
212
212
212
212
212
212
212
212
212
212
212
212
212
212
185
185
185
185
185
185
185
185
185
185
185
185
185
185
185
185
157
157
157
157
157
157
157
157
157
157
157
157
157
157
157
157
127
127
127
127
127
127
127
127
127
127
127
127
127
127
127
127
98
98
98
98
98
98
98
98
98
98
98
98
98
98
98
98
70
70
70
70
70
70
70
70
70
70
70
70
70
70
70
212
212
212
212
212
212
212
212
212
212
212
212
212
212
212
185
185
185
185
185
185
185
185
185
185
185
185
185
185
185
185
157
157
157
157
157
157
157
157
157
157
157
157
157
157
157
157
127
127
127
127
127
127
127
127
127
127
127
127
127
127
127
127
98
98
98
98
98
98
98
98
98
98
98
98
98
98
98
98
70
70
70
70
70
70
70
70
70
70
70
70
70
70
70
212
212
212
212
212
212
212
212
212
212
212
212
212
212
212
185
185
185
185
185
185
185
185
185
185
185
185
185
185
185
185
157
157
157
157
157
157
157
157
157
157
157
157
157
157
157
157
127
127
127
127
127
127
127
127
127
127
127
127
127
127
127
127
98
98
98
98
98
98
98
98
98
98
98
98
98
98
98
98
70
70
70
70
70
70
70
70
70
70
70
70
70
70
70
212
212
212
212
212
212
212
212
212
212
212
212
212
212
212
185
185
185
185
185
185
185
185
185
185
185
185
185
185
185
185
157
157
157
157
157
157
157
157
157
157
157
157
157
157
157
157
127
127
127
127
127
127
127
127
127
127
127
127
127
127
127
127
98
98
98
98
98
98
98
98
98
98
98
98
98
98
98
98
70
70
70
70
70
70
70
70
70
70
70
70
70
70
70
212
212
212
212
212
212
212
212
212
212
212
212
212
212
212
185
185
185
185
185
185
185
185
185
185
185
185
185
185
185
185
157
157
157
157
157
157
157
157
157
157
157
157
157
157
157
157
127
127
127
127
127
127
127
127
127
127
127
127
127
127
127
127
98
98
98
98
98
98
98
98
98
98
98
98
98
98
98
98
70
70
70
70
70
70
70
70
70
70
70
70
70
70
70
212
212
212
212
212
212
212
212
212
212
212
212
212
212
212
185
185
185
185
185
185
185
185
185
185
185
185
185
185
185
185
157
157
157
157
157
157
157
157
157
157
157
157
157
157
157
157
127
127
127
127
127
127
127
127
127
127
127
127
127
127
127
127
98
98
98
98
98
98
98
98
98
98
98
98
98
98
98
98
70
70
70
70
70
70
70
70
70
70
70
70
70
70
70
212
212
212
212
212
212
212
212
212
212
212
212
212
212
212
185
185
185
185
185
185
185
185
185
185
185
185
185
185
185
185
157
157
157
157
157
157
157
157
157
157
157
157
157
157
157
157
127
127
127
127
127
127
127
127
127
127
127
127
127
127
127
127
98
98
98
98
98
98
98
98
98
98
98
98
98
98
98
98
70
70
70
70
70
70
70
70
70
70
70
70
70
70
70
212
212
212
212
212
212
212
212
212
212
212
212
212
212
212
185
185
185
185
185
185
185
185
185
185
185
185
185
185
185
185
157
157
157
157
157
157
157
157
157
157
157
157
157
157
157
157
127
127
127
127
127
127
127
127
127
127
127
127
127
127
127
127
98
98
98
98
98
98
98
98
98
98
98
98
98
98
98
98
70
70
70
70
70
70
70
70
70
70
70
70
70
70
70
212
212
212
212
212
212
212
212
212
212
212
212
212
212
212
185
185
185
185
185
185
185
185
185
185
185
185
185
185
185
185
157
157
157
157
157
157
157
157
157
157
157
157
157
157
157
157
127
127
127
127
127
127
127
127
127
127
127
127
127
127
127
127
98
98
98
98
98
98
98
98
98
98
98
98
98
98
98
98
70
70
70
70
70
70
70
70
70
70
70
70
70
70
70
212
212
212
212
212
212
212
212
212
212
212
212
212
212
212
185
185
185
185
185
185
185
185
185
185
185
185
185
185
185
185
157
157
157
157
157
157
157
157
157
157
157
157
157
157
157
157
127
127
127
127
127
127
127
127
127
127
127
127
127
127
127
127
98
98
98
98
98
98
98
98
98
98
98
98
98
98
98
98
70
70
70
70
70
70
70
70
70
70
70
70
70
70
70
212
212
212
212
212
212
212
212
212
212
212
212
212
212
212
185
185
185
185
185
185
185
185
185
185
185
185
185
185
185
185
157
157
157
157
157
157
157
157
157
157
157
157
157
157
157
157
127
127
127
127
127
127
127
127
127
127
127
127
127
127
127
127
98
98
98
98
98
98
98
98
98
98
98
98
98
98
98
98
70
70
70
70
70
70
70
70
70
70
70
70
70
70
70
235
235
235
235
235
235
235
235
235
235
235
235
235
235
235
212
212
212
212
212
212
212
212
212
212
212
212
212
212
212
212
185
185
185
185
185
185
185
185
185
185
185
185
185
185
185
185
157
157
157
157
157
157
157
157
157
157
157
157
157
157
157
157
127
127
127
127
127
127
127
127
127
127
127
127
127
127
127
127
98
98
98
98
98
98
98
98
98
98
98
98
98
98
98
235
235
235
235
235
235
235
235
235
235
235
235
235
235
235
212
212
212
212
212
212
212
212
212
212
212
212
212
212
212
212
185
185
185
185
185
185
185
185
185
185
185
185
185
185
185
185
157
157
157
157
157
157
157
157
157
157
157
157
157
157
157
157
127
127
127
127
127
127
127
127
127
127
127
127
127
127
127
127
98
98
98
98
98
98
98
98
98
98
98
98
98
98
98
235
235
235
235
235
235
235
235
235
235
235
235
235
235
235
212
212
212
212
212
212
212
212
212
212
212
212
212
212
212
212
185
185
185
185
185
185
185
185
185
185
185
185
185
185
185
185
157
157
157
157
157
157
157
157
157
157
157
157
157
157
157
157
127
127
127
127
127
127
127
127
127
127
127
127
127
127
127
127
98
98
98
98
98
98
98
98
98
98
98
98
98
98
98
235
235
235
235
235
235
235
235
235
235
235
235
235
235
235
212
212
212
212
212
212
212
212
212
212
212
212
212
212
212
212
185
185
185
185
185
185
185
185
185
185
185
185
185
185
185
185
157
157
157
157
157
157
157
157
157
157
157
157
157
157
157
157
127
127
127
127
127
127
127
127
127
127
127
127
127
127
127
127
98
98
98
98
98
98
98
98
98
98
98
98
98
98
98
235
235
235
235
235
235
235
235
235
235
235
235
235
235
235
212
212
212
212
212
212
212
212
212
212
212
212
212
212
212
212
185
185
185
185
185
185
185
185
185
185
185
185
185
185
185
185
157
157
157
157
157
157
157
157
157
157
157
157
157
157
157
157
127
127
127
127
127
127
127
127
127
127
127
127
127
127
127
127
98
98
98
98
98
98
98
98
98
98
98
98
98
98
98
235
235
235
235
235
235
235
235
235
235
235
235
235
235
235
212
212
212
212
212
212
212
212
212
212
212
212
212
212
212
212
185
185
185
185
185
185
185
185
185
185
185
185
185
185
185
185
157
157
157
157
157
157
157
157
157
157
157
157
157
157
157
157
127
127
127
127
127
127
127
127
127
127
127
127
127
127
127
127
98
98
98
98
98
98
98
98
98
98
98
98
98
98
98
235
235
235
235
235
235
235
235
235
235
235
235
235
235
235
212
212
212
212
212
212
212
212
212
212
212
212
212
212
212
212
185
185
185
185
185
185
185
185
185
185
185
185
185
185
185
185
157
157
157
157
157
157
157
157
157
157
157
157
157
157
157
157
127
127
127
127
127
127
127
127
127
127
127
127
127
127
127
127
98
98
98
98
98
98
98
98
98
98
98
98
98
98
98
235
235
235
235
235
235
235
235
235
235
235
235
235
235
235
212
212
212
212
212
212
212
212
212
212
212
212
212
212
212
212
185
185
185
185
185
185
185
185
185
185
185
185
185
185
185
185
157
157
157
157
157
157
157
157
157
157
157
157
157
157
157
157
127
127
127
127
127
127
127
127
127
127
127
127
127
127
127
127
98
98
98
98
98
98
98
98
98
98
98
98
98
98
98
235
235
235
235
235
235
235
235
235
235
235
235
235
235
235
212
212
212
212
212
212
212
212
212
212
212
212
212
212
212
212
185
185
185
185
185
185
185
185
185
185
185
185
185
185
185
185
157
157
157
157
157
157
157
157
157
157
157
157
157
157
157
157
127
127
127
127
127
127
127
127
127
127
127
127
127
127
127
127
98
98
98
98
98
98
98
98
98
98
98
98
98
98
98
235
235
235
235
235
235
235
235
235
235
235
235
235
235
235
212
212
212
212
212
212
212
212
212
212
212
212
212
212
212
212
185
185
185
185
185
185
185
185
185
185
185
185
185
185
185
185
157
157
157
157
157
157
157
157
157
157
157
157
157
157
157
157
127
127
127
127
127
127
127
127
127
127
127
127
127
127
127
127
98
98
98
98
98
98
98
98
98
98
98
98
98
98
98
235
235
235
235
235
235
235
235
235
235
235
235
235
235
235
212
212
212
212
212
212
212
212
212
212
212
212
212
212
212
212
185
185
185
185
185
185
185
185
185
185
185
185
185
185
185
185
157
157
157
157
157
157
157
157
157
157
157
157
157
157
157
157
127
127
127
127
127
127
127
127
127
127
127
127
127
127
127
127
98
98
98
98
98
98
98
98
98
98
98
98
98
98
98
235
235
235
235
235
235
235
235
235
235
235
235
235
235
235
212
212
212
212
212
212
212
212
212
212
212
212
212
212
212
212
185
185
185
185
185
185
185
185
185
185
185
185
185
185
185
185
157
157
157
157
157
157
157
157
157
157
157
157
157
157
157
157
127
127
127
127
127
127
127
127
127
127
127
127
127
127
127
127
98
98
98
98
98
98
98
98
98
98
98
98
98
98
98
235
235
235
235
235
235
235
235
235
235
235
235
235
235
235
212
212
212
212
212
212
212
212
212
212
212
212
212
212
212
212
185
185
185
185
185
185
185
185
185
185
185
185
185
185
185
185
157
157
157
157
157
157
157
157
157
157
157
157
157
157
157
157
127
127
127
127
127
127
127
127
127
127
127
127
127
127
127
127
98
98
98
98
98
98
98
98
98
98
98
98
98
98
98
235
235
235
235
235
235
235
235
235
235
235
235
235
235
235
212
212
212
212
212
212
212
212
212
212
212
212
212
212
212
212
185
185
185
185
185
185
185
185
185
185
185
185
185
185
185
185
157
157
157
157
157
157
157
157
157
157
157
157
157
157
157
157
127
127
127
127
127
127
127
127
127
127
127
127
127
127
127
127
98
98
98
98
98
98
98
98
98
98
98
98
98
98
98
235
235
235
235
235
235
235
235
235
235
235
235
235
235
235
212
212
212
212
212
212
212
212
212
212
212
212
212
212
212
212
185
185
185
185
185
185
185
185
185
185
185
185
185
185
185
185
157
157
157
157
157
157
157
157
157
157
157
157
157
157
157
157
127
127
127
127
127
127
127
127
127
127
127
127
127
127
127
127
98
98
98
98
98
98
98
98
98
98
98
98
98
98
98
235
235
235
235
235
235
235
235
235
235
235
235
235
235
235
212
212
212
212
212
212
212
212
212
212
212
212
212
212
212
212
185
185
185
185
185
185
185
185
185
185
185
185
185
185
185
185
157
157
157
157
157
157
157
157
157
157
157
157
157
157
157
157
127
127
127
127
127
127
127
127
127
127
127
127
127
127
127
127
98
98
98
98
98
98
98
98
98
98
98
98
98
98
98
254
254
254
254
254
254
254
254
254
254
254
254
254
254
254
235
235
235
235
235
235
235
235
235
235
235
235
235
235
235
235
212
212
212
212
212
212
212
212
212
212
212
212
212
212
212
212
185
185
185
185
185
185
185
185
185
185
185
185
185
185
185
185
157
157
157
157
157
157
157
157
157
157
157
157
157
157
157
157
127
127
127
127
127
127
127
127
127
127
127
127
127
127
127
254
254
254
254
254
254
254
254
254
254
254
254
254
254
254
235
235
235
235
235
235
235
235
235
235
235
235
235
235
235
235
212
212
212
212
212
212
212
212
212
212
212
212
212
212
212
212
185
185
185
185
185
185
185
185
185
185
185
185
185
185
185
185
157
157
157
157
157
157
157
157
157
157
157
157
157
157
157
157
127
127
127
127
127
127
127
127
127
127
127
127
127
127
127
254
254
254
254
254
254
254
254
254
254
254
254
254
254
254
235
235
235
235
235
235
235
235
235
235
235
235
235
235
235
235
212
212
212
212
212
212
212
212
212
212
212
212
212
212
212
212
185
185
185
185
185
185
185
185
185
185
185
185
185
185
185
185
157
157
157
157
157
157
157
157
157
157
157
157
157
157
157
157
127
127
127
127
127
127
127
127
127
127
127
127
127
127
127
254
254
254
254
254
254
254
254
254
254
254
254
254
254
254
235
235
235
235
235
235
235
235
235
235
235
235
235
235
235
235
212
212
212
212
212
212
212
212
212
212
212
212
212
212
212
212
185
185
185
185
185
185
185
185
185
185
185
185
185
185
185
185
157
157
157
157
157
157
157
157
157
157
157
157
157
157
157
157
127
127
127
127
127
127
127
127
127
127
127
127
127
127
127
254
254
254
254
254
254
254
254
254
254
254
254
254
254
254
235
235
235
235
235
235
235
235
235
235
235
235
235
235
235
235
212
212
212
212
212
212
212
212
212
212
212
212
212
212
212
212
185
185
185
185
185
185
185
185
185
185
185
185
185
185
185
185
157
157
157
157
157
157
157
157
157
157
157
157
157
157
157
157
127
127
127
127
127
127
127
127
127
127
127
127
127
127
127
254
254
254
254
254
254
254
254
254
254
254
254
254
254
254
235
235
235
235
235
235
235
235
235
235
235
235
235
235
235
235
212
212
212
212
212
212
212
212
212
212
212
212
212
212
212
212
185
185
185
185
185
185
185
185
185
185
185
185
185
185
185
185
157
157
157
157
157
157
157
157
157
157
157
157
157
157
157
157
127
127
127
127
127
127
127
127
127
127
127
127
127
127
127
254
254
254
254
254
254
254
254
254
254
254
254
254
254
254
235
235
235
235
235
235
235
235
235
235
235
235
235
235
235
235
212
212
212
212
212
212
212
212
212
212
212
212
212
212
212
212
185
185
185
185
185
185
185
185
185
185
185
185
185
185
185
185
157
157
157
157
157
157
157
157
157
157
157
157
157
157
157
157
127
127
127
127
127
127
127
127
127
127
127
127
127
127
127
254
254
254
254
254
254
254
254
254
254
254
254
254
254
254
235
235
235
235
235
235
235
235
235
235
235
235
235
235
235
235
212
212
212
212
212
212
212
212
212
212
212
212
212
212
212
212
185
185
185
185
185
185
185
185
185
185
185
185
185
185
185
185
157
157
157
157
157
157
157
157
157
157
157
157
157
157
157
157
127
127
127
127
127
127
127
127
127
127
127
127
127
127
127
254
254
254
254
254
254
254
254
254
254
254
254
254
254
254
235
235
235
235
235
235
235
235
235
235
235
235
235
235
235
235
212
212
212
212
212
212
212
212
212
212
212
212
212
212
212
212
185
185
185
185
185
185
185
185
185
185
185
185
185
185
185
185
157
157
157
157
157
157
157
157
157
157
157
157
157
157
157
157
127
127
127
127
127
127
127
127
127
127
127
127
127
127
127
254
254
254
254
254
254
254
254
254
254
254
254
254
254
254
235
235
235
235
235
235
235
235
235
235
235
235
235
235
235
235
212
212
212
212
212
212
212
212
212
212
212
212
212
212
212
212
185
185
185
185
185
185
185
185
185
185
185
185
185
185
185
185
157
157
157
157
157
157
157
157
157
157
157
157
157
157
157
157
127
127
127
127
127
127
127
127
127
127
127
127
127
127
127
254
254
254
254
254
254
254
254
254
254
254
254
254
254
254
235
235
235
235
235
235
235
235
235
235
235
235
235
235
235
235
212
212
212
212
212
212
212
212
212
212
212
212
212
212
212
212
185
185
185
185
185
185
185
185
185
185
185
185
185
185
185
185
157
157
157
157
157
157
157
157
157
157
157
157
157
157
157
157
127
127
127
127
127
127
127
127
127
127
127
127
127
127
127
254
254
254
254
254
254
254
254
254
254
254
254
254
254
254
235
235
235
235
235
235
235
235
235
235
235
235
235
235
235
235
212
212
212
212
212
212
212
212
212
212
212
212
212
212
212
212
185
185
185
185
185
185
185
185
185
185
185
185
185
185
185
185
157
157
157
157
157
157
157
157
157
157
157
157
157
157
157
157
127
127
127
127
127
127
127
127
127
127
127
127
127
127
127
254
254
254
254
254
254
254
254
254
254
254
254
254
254
254
235
235
235
235
235
235
235
235
235
235
235
235
235
235
235
235
212
212
212
212
212
212
212
212
212
212
212
212
212
212
212
212
185
185
185
185
185
185
185
185
185
185
185
185
185
185
185
185
157
157
157
157
157
157
157
157
157
157
157
157
157
157
157
157
127
127
127
127
127
127
127
127
127
127
127
127
127
127
127
254
254
254
254
254
254
254
254
254
254
254
254
254
254
254
235
235
235
235
235
235
235
235
235
235
235
235
235
235
235
235
212
212
212
212
212
212
212
212
212
212
212
212
212
212
212
212
185
185
185
185
185
185
185
185
185
185
185
185
185
185
185
185
157
157
157
157
157
157
157
157
157
157
157
157
157
157
157
157
127
127
127
127
127
127
127
127
127
127
127
127
127
127
127
254
254
254
254
254
254
254
254
254
254
254
254
254
254
254
235
235
235
235
235
235
235
235
235
235
235
235
235
235
235
235
212
212
212
212
212
212
212
212
212
212
212
212
212
212
212
212
185
185
185
185
185
185
185
185
185
185
185
185
185
185
185
185
157
157
157
157
157
157
157
157
157
157
157
157
157
157
157
157
127
127
127
127
127
127
127
127
127
127
127
127
127
127
127
